<?xml version="1.0" encoding="utf-8"?>
<!-- Generator: Adobe Illustrator 25.2.1, SVG Export Plug-In . SVG Version: 6.00 Build 0)  -->
<svg version="1.1" id="Ebene_1" xmlns="http://www.w3.org/2000/svg" xmlns:xlink="http://www.w3.org/1999/xlink" x="0px" y="0px"
	 viewBox="0 0 791 792" style="enable-background:new 0 0 791 792;" xml:space="preserve">
<style type="text/css">
	.st0{fill:#15B5A2;}
	.st1{fill:#FFFFFF;}
	.st2{fill:#34495E;}
</style>
<path class="st0" d="M637.7,781.8H152.2C73.4,781.8,9.6,718,9.6,639.2V153.8c0-78.7,63.8-142.6,142.6-142.6h485.5
	c78.8,0,142.6,63.8,142.6,142.6v485.5C780.2,718,716.5,781.8,637.7,781.8z"/>
<path class="st1" d="M263.1,169.4h-46.5c-51.4,0-93,41.6-93,93v36.3c0,8.2-3.3,16.1-9.1,21.9l-43.8,43.8
	c-12.1,12.1-12.1,31.7,0,43.8l0,0l43.8,43.8c5.8,5.8,9.1,13.7,9.1,21.9v36.3c0,51.4,41.6,93,93,93h46.5c8.6,0,15.5-6.9,15.5-15.5
	v-31c0-8.6-6.9-15.5-15.5-15.5h-46.5c-17.1,0-31-13.9-31-31v-36.3c0-24.7-9.8-48.3-27.3-65.8l-21.9-21.7l21.9-21.9
	c17.4-17.4,27.2-41.1,27.2-65.8v-36.3c0-17.1,13.9-31,31-31H263c8.6,0,15.5-6.9,15.5-15.5v-31C278.6,176.4,271.6,169.4,263.1,169.4z
	 M705.5,365.6l-43.8-43.8c-5.8-5.8-9.1-13.7-9.1-21.9v-36.3c0-51.4-41.6-93-93-93h-46.5c-8.6,0-15.5,6.9-15.5,15.5v31
	c0,8.6,6.9,15.5,15.5,15.5h46.5c17.1,0,31,13.9,31,31v36.3c0,24.7,9.8,48.3,27.3,65.8l21.9,21.9L618,409.5
	c-17.4,17.4-27.2,41.1-27.3,65.8v36.3c0,17.1-13.9,31-31,31h-46.5c-8.6,0-15.5,6.9-15.5,15.5v31c0,8.6,6.9,15.5,15.5,15.5h46.5
	c51.4,0,93-41.6,93-93v-36.3c0-8.2,3.3-16.1,9.1-21.9l43.8-43.8C717.7,397.4,717.7,377.7,705.5,365.6L705.5,365.6L705.5,365.6z"/>
<g>
	<path class="st1" d="M421.1,297.8l-35,60.6l-35-60.6H234.4L386,560.4l151.6-262.6H421.1z"/>
	<path class="st2" d="M421.1,297.8l-35,60.6l-35-60.6h-55.9l91,157.5l91-157.5H421.1z"/>
</g>
</svg>
