<?xml version="1.0" encoding="utf-8"?>
<!-- Generator: Adobe Illustrator 25.2.1, SVG Export Plug-In . SVG Version: 6.00 Build 0)  -->
<svg version="1.1" id="Ebene_1" xmlns="http://www.w3.org/2000/svg" xmlns:xlink="http://www.w3.org/1999/xlink" x="0px" y="0px"
	 viewBox="0 0 791 792" style="enable-background:new 0 0 791 792;" xml:space="preserve">
<style type="text/css">
	.st0{fill:#15B5A2;}
	.st1{fill:#FFFFFF;}
</style>
<path class="st0" d="M636.2,780.8H150.8C72,780.8,8.2,716.9,8.2,638.2V152.7C8.2,74,72,10.1,150.8,10.1h485.5
	c78.8,0,142.6,63.8,142.6,142.6v485.5C778.8,716.9,715,780.8,636.2,780.8z"/>
<path class="st1" d="M311.7,169.4h-46.5c-51.4,0-93,41.6-93,93v36.3c0,8.2-3.3,16.1-9.1,21.9l-43.8,43.8
	c-12.1,12.1-12.1,31.7,0,43.8c0,0,0,0,0,0l43.8,43.8c5.8,5.8,9.1,13.7,9.1,21.9v36.3c0,51.4,41.6,93,93,93h46.5
	c8.6,0,15.5-6.9,15.5-15.5v-31c0-8.6-6.9-15.5-15.5-15.5h-46.5c-17.1,0-31-13.9-31-31v-36.3c0-24.7-9.8-48.3-27.3-65.8L185,386.4
	l21.9-21.9c17.4-17.4,27.2-41.1,27.2-65.8v-36.3c0-17.1,13.9-31,31-31h46.5c8.6,0,15.5-6.9,15.5-15.5v-31
	C327.2,176.4,320.2,169.4,311.7,169.4z M659.1,364.5l-43.8-43.8c-5.8-5.8-9.1-13.7-9.1-21.9v-36.3c0-51.4-41.6-93-93-93h-46.5
	c-8.6,0-15.5,6.9-15.5,15.5v31c0,8.6,6.9,15.5,15.5,15.5h46.5c17.1,0,31,13.9,31,31v36.3c0,24.7,9.8,48.3,27.3,65.8l21.9,21.9
	l-21.9,21.9c-17.4,17.4-27.2,41.1-27.3,65.8v36.3c0,17.1-13.9,31-31,31h-46.5c-8.6,0-15.5,6.9-15.5,15.5v31
	c0,8.6,6.9,15.5,15.5,15.5h46.5c51.4,0,93-41.6,93-93v-36.3c0-8.2,3.3-16.1,9.1-21.9l43.8-43.8C671.2,396.3,671.2,376.6,659.1,364.5
	C659.1,364.5,659.1,364.5,659.1,364.5L659.1,364.5z"/>
</svg>
