<?xml version="1.0" encoding="utf-8"?>
<!-- Generator: Adobe Illustrator 25.2.1, SVG Export Plug-In . SVG Version: 6.00 Build 0)  -->
<svg version="1.1" id="Ebene_1" xmlns="http://www.w3.org/2000/svg" xmlns:xlink="http://www.w3.org/1999/xlink" x="0px" y="0px"
	 viewBox="0 0 791 792" style="enable-background:new 0 0 791 792;" xml:space="preserve">
<style type="text/css">
	.st0{fill:none;}
	.st1{fill:#CE0110;}
</style>
<g id="Layer_2">
	<rect x="1" y="-0.5" class="st0" width="790" height="792"/>
</g>
<path class="st1" d="M676.2,171.3H566.9v-65.6c0-36.2-29.4-65.6-65.6-65.6H282.7c-36.2,0-65.6,29.4-65.6,65.6v65.6H107.8
	c-36.2,0-65.6,29.4-65.6,65.6v393.5c0,36.2,29.4,65.6,65.6,65.6h568.3c36.2,0,65.6-29.4,65.6-65.6V236.8
	C741.7,200.6,712.4,171.3,676.2,171.3z M304.6,127.5h174.9v43.7H304.6V127.5z M523.2,466.4c0,6-4.9,10.9-10.9,10.9h-76.5v76.5
	c0,6-4.9,10.9-10.9,10.9h-65.6c-6,0-10.9-4.9-10.9-10.9v-76.5h-76.5c-6,0-10.9-4.9-10.9-10.9v-65.6c0-6,4.9-10.9,10.9-10.9h76.5
	v-76.5c0-6,4.9-10.9,10.9-10.9h65.6c6,0,10.9,4.9,10.9,10.9v76.5h76.5c6,0,10.9,4.9,10.9,10.9V466.4z"/>
</svg>
